#N canvas 827 239 527 327 12;
#X obj 63 409 adc~;
#X obj 64 550 dac~;
#N canvas 0 50 450 300 delays 1;
#X obj 100 24 inlet~;
#X obj 837 24 inlet~;
#X obj 96 1043 outlet~;
#X obj 836 1043 outlet~;
#X obj 1348 19 inlet;
#X obj 96 933 *~;
#X obj 298 358 *~;
#X obj 230 234 r \$0-time;
#X obj 159 69 r~ feedbackL;
#X obj 298 697 s~ feedbackL;
#X obj 369 284 r \$0-feedback;
#X obj 230 264 delread~ delayL 0;
#X obj 127 159 delwrite~ delayL 5000;
#X obj 1348 85 hv.dispatch \$0 feedback 0;
#X obj 1348 129 hv.dispatch \$0 mix 0.5;
#X obj 1348 63 hv.dispatch \$0 cross 0.2;
#X obj 1348 107 hv.dispatch \$0 time 500;
#X obj 836 935 *~;
#X obj 1052 349 *~;
#X obj 965 234 r \$0-time;
#X obj 1123 275 r \$0-feedback;
#X obj 918 69 r~ feedbackR;
#X obj 965 264 delread~ delayR 0;
#X obj 1052 699 s~ feedbackR;
#X obj 96 1001 +~;
#X obj 836 1003 +~;
#X obj 654 719 clip 0 1;
#X msg 267 881 \$1 100;
#X obj 267 901 line~;
#X obj 654 699 r \$0-mix;
#X obj 230 944 *~;
#N canvas 0 22 250 374 mix 1;
#X obj 50 80 * 2;
#X obj 50 110 - 1;
#X obj 50 140 t f f;
#X obj 101 200 + 1;
#X msg 50 170 1 \$1;
#X obj 50 200 -;
#X obj 101 230 * 0.5;
#X obj 50 230 * 0.5;
#X obj 101 260 sqrt;
#X obj 50 260 sqrt;
#X obj 50 290 outlet;
#X obj 101 290 outlet;
#X obj 50 50 inlet;
#X connect 0 0 1 0 empty;
#X connect 1 0 2 0 empty;
#X connect 2 0 4 0 empty;
#X connect 2 1 3 0 empty;
#X connect 3 0 6 0 empty;
#X connect 4 0 5 0 empty;
#X connect 5 0 7 0 empty;
#X connect 6 0 8 0 empty;
#X connect 7 0 9 0 empty;
#X connect 8 0 11 0 empty;
#X connect 9 0 10 0 empty;
#X connect 12 0 0 0 empty;
#X restore 654 739 pd mix;
#X msg 127 861 \$1 100;
#X obj 127 881 line~;
#X msg 874 868 \$1 100;
#X obj 874 888 line~;
#X msg 1003 886 \$1 100;
#X obj 1003 906 line~;
#X obj 964 944 *~;
#X obj 874 159 delwrite~ delayR 5000;
#X obj 644 233 clip 0 1;
#X obj 644 213 r \$0-cross;
#N canvas 0 22 250 374 cross 1;
#X obj 50 80 * 2;
#X obj 50 110 - 1;
#X obj 50 140 t f f;
#X obj 101 200 + 1;
#X msg 50 170 1 \$1;
#X obj 50 200 -;
#X obj 50 290 outlet;
#X obj 101 290 outlet;
#X obj 50 50 inlet;
#X obj 50 230 * 0.5;
#X obj 101 230 * 0.5;
#X connect 0 0 1 0 empty;
#X connect 1 0 2 0 empty;
#X connect 2 0 4 0 empty;
#X connect 2 1 3 0 empty;
#X connect 3 0 10 0 empty;
#X connect 4 0 5 0 empty;
#X connect 5 0 9 0 empty;
#X connect 8 0 0 0 empty;
#X connect 9 0 6 0 empty;
#X connect 10 0 7 0 empty;
#X restore 644 253 pd cross;
#X obj 298 547 *~;
#X obj 298 586 +~;
#X msg 469 495 \$1 100;
#X obj 469 515 line~;
#X obj 469 541 *~;
#X msg 329 475 \$1 100;
#X obj 329 495 line~;
#X obj 1052 527 *~;
#X obj 1052 586 +~;
#X msg 1223 475 \$1 100;
#X obj 1223 495 line~;
#X obj 1212 537 *~;
#X msg 1083 455 \$1 100;
#X obj 1083 475 line~;
#X obj 127 120 hip~ 600;
#X obj 874 120 hip~ 600;
#X obj 298 659 lop~ 4000;
#X obj 1052 661 lop~ 4000;
#X obj 230 753 clip~ -1 1;
#X obj 965 753 clip~ -1 1;
#N canvas 0 50 450 300 limit 1;
#X obj 138 144 env~;
#X obj 138 166 dbtorms;
#X msg 139 220 1 \$1;
#X obj 101 99 inlet~;
#X obj 101 399 outlet~;
#X obj 101 346 *~;
#X obj 139 303 lop~ 20;
#X obj 139 249 -;
#X connect 0 0 1 0 empty;
#X connect 1 0 2 0 empty;
#X connect 2 0 7 0 empty;
#X connect 3 0 0 0 empty;
#X connect 3 0 5 0 empty;
#X connect 5 0 4 0 empty;
#X connect 6 0 5 1 empty;
#X connect 7 0 6 0 empty;
#X restore 298 619 pd limit;
#N canvas 0 50 450 300 limit 1;
#X obj 136 144 env~;
#X obj 136 166 dbtorms;
#X msg 137 220 1 \$1;
#X obj 99 99 inlet~;
#X obj 99 399 outlet~;
#X obj 99 346 *~;
#X obj 137 303 lop~ 20;
#X obj 137 249 -;
#X connect 0 0 1 0 empty;
#X connect 1 0 2 0 empty;
#X connect 2 0 7 0 empty;
#X connect 3 0 0 0 empty;
#X connect 3 0 5 0 empty;
#X connect 5 0 4 0 empty;
#X connect 6 0 5 1 empty;
#X connect 7 0 6 0 empty;
#X restore 1052 619 pd limit;
#X connect 0 0 5 0 empty;
#X connect 0 0 57 0 empty;
#X connect 1 0 17 0 empty;
#X connect 1 0 58 0 empty;
#X connect 4 0 15 0 empty;
#X connect 5 0 24 0 empty;
#X connect 6 0 43 0 empty;
#X connect 6 0 54 0 empty;
#X connect 7 0 11 0 empty;
#X connect 8 0 57 0 empty;
#X connect 10 0 6 1 empty;
#X connect 11 0 61 0 empty;
#X connect 11 0 6 0 empty;
#X connect 13 0 16 0 empty;
#X connect 15 0 13 0 empty;
#X connect 16 0 14 0 empty;
#X connect 17 0 25 0 empty;
#X connect 18 0 50 0 empty;
#X connect 18 0 47 0 empty;
#X connect 19 0 22 0 empty;
#X connect 20 0 18 1 empty;
#X connect 21 0 58 0 empty;
#X connect 22 0 62 0 empty;
#X connect 22 0 18 0 empty;
#X connect 24 0 2 0 empty;
#X connect 25 0 3 0 empty;
#X connect 26 0 31 0 empty;
#X connect 27 0 28 0 empty;
#X connect 28 0 30 1 empty;
#X connect 29 0 26 0 empty;
#X connect 30 0 24 1 empty;
#X connect 31 0 32 0 empty;
#X connect 31 0 34 0 empty;
#X connect 31 1 27 0 empty;
#X connect 31 1 36 0 empty;
#X connect 32 0 33 0 empty;
#X connect 33 0 5 1 empty;
#X connect 34 0 35 0 empty;
#X connect 35 0 17 1 empty;
#X connect 36 0 37 0 empty;
#X connect 37 0 38 1 empty;
#X connect 38 0 25 1 empty;
#X connect 40 0 42 0 empty;
#X connect 41 0 40 0 empty;
#X connect 42 0 48 0 empty;
#X connect 42 0 55 0 empty;
#X connect 42 1 52 0 empty;
#X connect 42 1 45 0 empty;
#X connect 43 0 44 0 empty;
#X connect 44 0 63 0 empty;
#X connect 45 0 46 0 empty;
#X connect 46 0 47 1 empty;
#X connect 47 0 44 1 empty;
#X connect 48 0 49 0 empty;
#X connect 49 0 43 1 empty;
#X connect 50 0 51 0 empty;
#X connect 51 0 64 0 empty;
#X connect 52 0 53 0 empty;
#X connect 53 0 54 1 empty;
#X connect 54 0 51 1 empty;
#X connect 55 0 56 0 empty;
#X connect 56 0 50 1 empty;
#X connect 57 0 12 0 empty;
#X connect 58 0 39 0 empty;
#X connect 59 0 9 0 empty;
#X connect 60 0 23 0 empty;
#X connect 61 0 30 0 empty;
#X connect 62 0 38 0 empty;
#X connect 63 0 59 0 empty;
#X connect 64 0 60 0 empty;
#X restore 64 480 pd delays;
#X obj 332 214 hsl 128 15 0 1 0 0 empty empty empty -2 8 0 10 #fcfcfc #000000 #000000 0 1;
#X obj 361 309 hsl 128 15 0 5000 0 0 empty empty empty -2 8 0 10 #fcfcfc #000000 #000000 0 1;
#X obj 379 439 hsl 128 15 0 1 0 0 empty empty empty -2 8 0 10 #fcfcfc #000000 #000000 0 1;
#X obj 299 79 hsl 128 15 0 1 0 0 empty empty empty -2 8 0 10 #fcfcfc #000000 #000000 0 1;
#X msg 296 106 mix \$1, f 8;
#X msg 328 237 feedback \$1, f 12;
#X text 460 466 // 0..1, f 6;
#X text 365 105 // 0..1 (0=dry), f 12;
#X obj 296 13 r Mix @hv_param 0 100 50;
#X obj 296 46 / 100;
#X obj 329 178 / 100;
#X obj 376 409 / 100;
#X obj 329 148 r Feedback @hv_param 0 100 25, f 30;
#X msg 358 331 time \$1, f 10;
#X obj 376 373 r Cross @hv_param 0 100 20;
#X msg 376 467 cross \$1;
#X obj 358 273 r Time @hv_param 0 5000 500, f 28;
#X text 421 229 // 0..1, f 6;
#X text 446 334 // 0..5000 ms;
#X connect 0 0 2 0 empty;
#X connect 0 1 2 1 empty;
#X connect 2 0 1 0 empty;
#X connect 2 1 1 1 empty;
#X connect 3 0 8 0 empty;
#X connect 4 0 16 0 empty;
#X connect 5 0 18 0 empty;
#X connect 6 0 7 0 empty;
#X connect 7 0 2 2 empty;
#X connect 8 0 2 2 empty;
#X connect 11 0 12 0 empty;
#X connect 12 0 6 0 empty;
#X connect 13 0 3 0 empty;
#X connect 14 0 5 0 empty;
#X connect 15 0 13 0 empty;
#X connect 16 0 2 2 empty;
#X connect 17 0 14 0 empty;
#X connect 18 0 2 2 empty;
#X connect 19 0 4 0 empty;
