#N canvas 827 239 527 327 12;
#X declare -path dep/;
#X obj 63 409 adc~;
#X obj 64 550 dac~;
#X obj 332 214 hsl 128 15 0 1 0 0 empty empty empty -2 8 0 10 #fcfcfc #000000 #000000 0 1;
#X obj 361 309 hsl 128 15 0 5000 0 0 empty empty empty -2 8 0 10 #fcfcfc #000000 #000000 0 1;
#X obj 379 439 hsl 128 15 0 1 0 0 empty empty empty -2 8 0 10 #fcfcfc #000000 #000000 0 1;
#X obj 299 79 hsl 128 15 0 1 0 0 empty empty empty -2 8 0 10 #fcfcfc #000000 #000000 0 1;
#X msg 296 106 mix \$1, f 8;
#X msg 328 237 feedback \$1, f 12;
#X text 460 466 // 0..1, f 6;
#X text 365 105 // 0..1 (0=dry), f 12;
#X obj 296 13 r Mix @hv_param 0 100 50;
#X obj 296 46 / 100;
#X obj 329 178 / 100;
#X obj 376 409 / 100;
#X obj 329 148 r Feedback @hv_param 0 100 25, f 30;
#X msg 358 331 time \$1, f 10;
#X obj 376 373 r Cross @hv_param 0 100 20;
#X msg 376 467 cross \$1;
#X text 421 229 // 0..1, f 6;
#X obj 358 273 r Time @hv_param 50 5000 500;
#X text 446 334 // 50..5000 ms;
#X obj 215 590 declare -path dep/;
#X obj 64 480 wstd.cmpnnts/dlay;
#X connect 0 0 22 0 empty;
#X connect 0 1 22 1 empty;
#X connect 2 0 7 0 empty;
#X connect 3 0 15 0 empty;
#X connect 4 0 17 0 empty;
#X connect 5 0 6 0 empty;
#X connect 6 0 22 2 empty;
#X connect 7 0 22 2 empty;
#X connect 10 0 11 0 empty;
#X connect 11 0 5 0 empty;
#X connect 12 0 2 0 empty;
#X connect 13 0 4 0 empty;
#X connect 14 0 12 0 empty;
#X connect 15 0 22 2 empty;
#X connect 16 0 13 0 empty;
#X connect 17 0 22 2 empty;
#X connect 19 0 3 0 empty;
#X connect 22 0 1 0 empty;
#X connect 22 1 1 1 empty;
